<?xml version="1.0" encoding="UTF-8"?>
<svg version="1.1" xmlns="http://www.w3.org/2000/svg" width="355" height="384">
<path d="M0 0 C117.15 0 234.3 0 355 0 C355 126.72 355 253.44 355 384 C237.85 384 120.7 384 0 384 C0 257.28 0 130.56 0 0 Z " fill="#113269" transform="translate(0,0)"/>
<path d="M0 0 C9.24 0 18.48 0 28 0 C31.65531895 11.1321077 34.86679963 22.06604567 37.23828125 33.53515625 C37.8155981 36.83514324 37.8155981 36.83514324 39 39 C39.16081055 38.28046143 39.32162109 37.56092285 39.48730469 36.81958008 C40.23625809 33.48267748 40.9930961 30.14760782 41.75 26.8125 C42.12898438 25.11577148 42.12898438 25.11577148 42.515625 23.38476562 C42.90234375 21.68803711 42.90234375 21.68803711 43.296875 19.95703125 C43.52729492 18.93585205 43.75771484 17.91467285 43.99511719 16.86254883 C45.47135098 11.18823037 47.2757148 5.6039269 49 0 C58.24 0 67.48 0 77 0 C77 21.45 77 42.9 77 65 C71.06 65 65.12 65 59 65 C58.67 51.8 58.34 38.6 58 25 C55.17118569 34.79616695 55.17118569 34.79616695 52.34643555 44.59350586 C50.36288388 51.44419242 48.32811845 58.2567443 46 65 C41.05 65 36.1 65 31 65 C29.61061477 60.44732809 28.22247924 55.89431149 26.83740234 51.34033203 C26.36676125 49.79421635 25.89542011 48.24831358 25.42333984 46.70263672 C24.74127849 44.46899393 24.06181616 42.23457393 23.3828125 40 C23.17439728 39.31945557 22.96598206 38.63891113 22.75125122 37.93774414 C21.34891072 33.31076171 20.17583407 28.70333629 19 24 C18.67 37.53 18.34 51.06 18 65 C12.06 65 6.12 65 0 65 C0 43.55 0 22.1 0 0 Z " fill="#FAFAFB" transform="translate(195,124)"/>
<path d="M0 0 C6.27 0 12.54 0 19 0 C22.4098892 3.472841 23.31948472 4.78891859 25 9 C25.98458782 10.65060357 26.99700431 12.28489334 28.03515625 13.90234375 C29.04657516 15.57934156 30.05568115 17.25773643 31.0625 18.9375 C31.56587891 19.76701172 32.06925781 20.59652344 32.58789062 21.45117188 C33.08611328 22.28068359 33.58433594 23.11019531 34.09765625 23.96484375 C34.53601807 24.6930835 34.97437988 25.42132324 35.42602539 26.17163086 C37.76250956 30.37019904 39.85118018 34.70236037 42 39 C42 26.13 42 13.26 42 0 C47.94 0 53.88 0 60 0 C60 21.45 60 42.9 60 65 C53.73 65 47.46 65 41 65 C34.85823491 57.39258643 34.85823491 57.39258643 33.28515625 53.81640625 C30.83750436 48.543952 27.90332294 43.61883815 24.9375 38.625 C24.00546179 37.0151301 23.07679357 35.4033019 22.15234375 33.7890625 C21.5644104 32.76353271 21.5644104 32.76353271 20.96459961 31.71728516 C20.27824012 30.49535333 19.62677057 29.25354114 19 28 C18.67 40.21 18.34 52.42 18 65 C12.06 65 6.12 65 0 65 C0 43.55 0 22.1 0 0 Z " fill="#FBFBFC" transform="translate(100,124)"/>
<path d="M0 0 C1.00023193 0.00523682 2.00046387 0.01047363 3.03100586 0.01586914 C4.1105957 0.0190918 5.19018555 0.02231445 6.30249023 0.02563477 C8.00695313 0.03820312 8.00695313 0.03820312 9.74584961 0.05102539 C11.45611328 0.05779297 11.45611328 0.05779297 13.20092773 0.06469727 C16.02845565 0.07652793 18.85586857 0.09384921 21.68334961 0.11352539 C24.79296153 7.59511829 27.4647048 15.17807182 30.01147461 22.86743164 C30.40534363 24.04949692 30.79921265 25.23156219 31.20501709 26.44944763 C32.02995027 28.92724973 32.85343646 31.40553401 33.67553711 33.88427734 C34.73104817 37.06617607 35.78952539 40.24705078 36.84987259 43.4273386 C37.86375166 46.46931173 38.87508437 49.51213029 39.88647461 52.55493164 C40.26765442 53.69958389 40.64883423 54.84423615 41.04156494 56.02357483 C41.38902771 57.07234299 41.73649048 58.12111115 42.09448242 59.20166016 C42.40218567 60.1285817 42.70988892 61.05550323 43.0269165 62.01051331 C43.68334961 64.11352539 43.68334961 64.11352539 43.68334961 65.11352539 C37.08334961 65.11352539 30.48334961 65.11352539 23.68334961 65.11352539 C20.68334961 57.11352539 20.68334961 57.11352539 20.68334961 53.11352539 C13.75334961 53.11352539 6.82334961 53.11352539 -0.31665039 53.11352539 C-0.97665039 56.41352539 -1.63665039 59.71352539 -2.31665039 63.11352539 C-2.64665039 63.77352539 -2.97665039 64.43352539 -3.31665039 65.11352539 C-9.91665039 65.11352539 -16.51665039 65.11352539 -23.31665039 65.11352539 C-21.20340293 57.15937079 -18.85740138 49.31556854 -16.34008789 41.48071289 C-15.96937164 40.32225861 -15.5986554 39.16380432 -15.21670532 37.97024536 C-14.43969475 35.54463956 -13.66147053 33.11942223 -12.88208008 30.69458008 C-11.6843273 26.96572709 -10.49247791 23.23502059 -9.30102539 19.50415039 C-8.54356627 17.14205788 -7.7857662 14.78007466 -7.02758789 12.41821289 C-6.49166519 10.73875076 -6.49166519 10.73875076 -5.94491577 9.02536011 C-5.61432159 7.99984039 -5.28372742 6.97432068 -4.94311523 5.91772461 C-4.65238129 5.01158417 -4.36164734 4.10544373 -4.06210327 3.17184448 C-2.96600911 0.14534664 -2.96600911 0.14534664 0 0 Z " fill="#FAFAFB" transform="translate(51.316650390625,123.886474609375)"/>
<path d="M0 0 C15.51 0 31.02 0 47 0 C47 4.95 47 9.9 47 15 C37.43 15 27.86 15 18 15 C18 18.3 18 21.6 18 25 C26.91 25 35.82 25 45 25 C45 29.62 45 34.24 45 39 C36.09 39 27.18 39 18 39 C18 42.96 18 46.92 18 51 C27.57 51 37.14 51 47 51 C47 55.62 47 60.24 47 65 C31.49 65 15.98 65 0 65 C0 43.55 0 22.1 0 0 Z " fill="#F8F9FA" transform="translate(280,124)"/>
<path d="M0 0 C3.96 0 7.92 0 12 0 C13.86882254 7.3053972 15.60637704 14.58920496 17 22 C17.33 22 17.66 22 18 22 C19.65 14.74 21.3 7.48 23 0 C26.96 0 30.92 0 35 0 C38.18194659 7.95486647 40.60222695 16.36808037 40 25 C40.66 25 41.32 25 42 25 C42.103125 23.845 42.20625 22.69 42.3125 21.5 C43.10218498 14.265092 44.60744581 7.13793499 46 0 C50.29 0 54.58 0 59 0 C58.41640133 7.14908375 56.51749417 13.86863715 54.61328125 20.75683594 C53.45999019 24.97516327 52.35861032 29.20725556 51.25 33.4375 C50.81779079 35.08205292 50.38550615 36.72658602 49.953125 38.37109375 C49.48132813 40.16740234 49.48132813 40.16740234 49 42 C44.38 42 39.76 42 35 42 C34.65066406 40.57945312 34.30132812 39.15890625 33.94140625 37.6953125 C33.48189477 35.83851099 33.02225258 33.98174183 32.5625 32.125 C32.33240234 31.18785156 32.10230469 30.25070313 31.86523438 29.28515625 C31.53168945 27.94130859 31.53168945 27.94130859 31.19140625 26.5703125 C30.88505249 25.32918701 30.88505249 25.32918701 30.57250977 24.06298828 C30.05992006 21.96004845 30.05992006 21.96004845 29 20 C27.35 27.26 25.7 34.52 24 42 C19.38 42 14.76 42 10 42 C9.44570313 39.83179688 8.89140625 37.66359375 8.3203125 35.4296875 C7.77802392 33.31464541 7.23499444 31.19979482 6.69189453 29.08496094 C6.3167713 27.62259423 5.94241056 26.1600317 5.56884766 24.69726562 C5.0297074 22.58671123 4.48776858 20.47689177 3.9453125 18.3671875 C3.62062988 17.09987793 3.29594727 15.83256836 2.96142578 14.52685547 C2.05799745 11.03656297 2.05799745 11.03656297 0.87841797 7.85205078 C0 5 0 5 0 0 Z " fill="#F9AD03" transform="translate(29,217)"/>
<path d="M0 0 C3.465 -0.0825 6.93 -0.165 10.5 -0.25 C12.11358398 -0.30462402 12.11358398 -0.30462402 13.75976562 -0.36035156 C20.71550663 -0.43991908 26.29359094 0.55714458 31.52099609 5.4128418 C36.64560588 11.18334092 37.45940531 16.51837965 37.3125 23.9921875 C36.70632475 29.82662431 34.41999673 33.9904099 30.0625 37.875 C25.59039424 40.9780938 22.1444301 42.25899918 16.69921875 42.1953125 C15.37796997 42.18781982 15.37796997 42.18781982 14.0300293 42.18017578 C12.37547729 42.15286377 12.37547729 42.15286377 10.6875 42.125 C7.160625 42.08375 3.63375 42.0425 0 42 C0 28.14 0 14.28 0 0 Z " fill="#FBAF01" transform="translate(290,217)"/>
<path d="M0 0 C3.67125 -0.061875 7.3425 -0.12375 11.125 -0.1875 C12.84420654 -0.22846802 12.84420654 -0.22846802 14.59814453 -0.27026367 C21.52306382 -0.32672672 25.9427042 0.42543512 31.375 5 C33.85043209 9.57002847 33.64355429 13.91285654 33 19 C31.510125 22.40542857 29.6072216 24.42929411 27 27 C27.5775 27.99902344 28.155 28.99804688 28.75 30.02734375 C29.50011259 31.33066437 30.25010648 32.63405332 31 33.9375 C31.3815625 34.59685547 31.763125 35.25621094 32.15625 35.93554688 C35 40.88671875 35 40.88671875 35 42 C30.71 42 26.42 42 22 42 C21.54109375 41.07316406 21.0821875 40.14632812 20.609375 39.19140625 C19.99030319 37.98140226 19.37047172 36.77178673 18.75 35.5625 C18.44964844 34.95083984 18.14929688 34.33917969 17.83984375 33.70898438 C16.83355002 31.69960437 16.83355002 31.69960437 15 29 C13.68 28.67 12.36 28.34 11 28 C11 32.62 11 37.24 11 42 C7.37 42 3.74 42 0 42 C0 28.14 0 14.28 0 0 Z " fill="#FCAF01" transform="translate(93,217)"/>
<path d="M0 0 C5.94 0 11.88 0 18 0 C18 21.45 18 42.9 18 65 C12.06 65 6.12 65 0 65 C0 43.55 0 22.1 0 0 Z " fill="#F8F8FA" transform="translate(169,124)"/>
<path d="M0 0 C5.28 0 10.56 0 16 0 C17.99575169 5.8200578 19.9895287 11.64078673 21.98144531 17.4621582 C22.65993319 19.44411692 23.33896881 21.42588821 24.01855469 23.4074707 C24.99296426 26.24902515 25.96542837 29.0912388 26.9375 31.93359375 C27.24373291 32.82525742 27.54996582 33.71692108 27.86547852 34.63560486 C28.14576904 35.45638016 28.42605957 36.27715546 28.71484375 37.12280273 C28.96355225 37.84894272 29.21226074 38.5750827 29.46850586 39.32322693 C30 41 30 41 30 42 C25.71 42 21.42 42 17 42 C15 37 15 37 15 34 C10.38 34 5.76 34 1 34 C0.67 35.98 0.34 37.96 0 40 C-0.33 40.66 -0.66 41.32 -1 42 C-5.29 42 -9.58 42 -14 42 C-12.4931269 37.1421409 -10.98132784 32.28585189 -9.46508789 27.4309082 C-8.95073381 25.78158381 -8.43769154 24.13184969 -7.92602539 22.48168945 C-7.18726631 20.09996469 -6.44368886 17.71978869 -5.69921875 15.33984375 C-5.47409103 14.61039047 -5.24896332 13.88093719 -5.01701355 13.12937927 C-4.79701187 12.42918167 -4.57701019 11.72898407 -4.3503418 11.00756836 C-4.16158981 10.4013414 -3.97283783 9.79511444 -3.77836609 9.17051697 C-2.6623498 6.0584437 -1.30234822 3.03881252 0 0 Z " fill="#FAAE02" transform="translate(144,217)"/>
<path d="M0 0 C3.650625 -0.0825 7.30125 -0.165 11.0625 -0.25 C12.19953369 -0.28641602 13.33656738 -0.32283203 14.50805664 -0.36035156 C20.93449079 -0.43040676 24.78512935 0.16678665 30 4 C33.6817345 7.91926576 33.44067084 12.27913145 33.2890625 17.40625 C32.8047027 21.75239741 31.21663729 23.93544237 28 26.75 C22.74345642 30.03533974 16.99011758 29.06440987 11 29 C11 33.29 11 37.58 11 42 C7.37 42 3.74 42 0 42 C0 28.14 0 14.28 0 0 Z " fill="#FDB000" transform="translate(216,217)"/>
<path d="M0 0 C3.650625 -0.0825 7.30125 -0.165 11.0625 -0.25 C12.19953369 -0.28641602 13.33656738 -0.32283203 14.50805664 -0.36035156 C20.93449079 -0.43040676 24.78512935 0.16678665 30 4 C33.6817345 7.91926576 33.44067084 12.27913145 33.2890625 17.40625 C32.8047027 21.75239741 31.21663729 23.93544237 28 26.75 C22.74345642 30.03533974 16.99011758 29.06440987 11 29 C11 33.29 11 37.58 11 42 C7.37 42 3.74 42 0 42 C0 28.14 0 14.28 0 0 Z " fill="#FDB000" transform="translate(178,217)"/>
<path d="M0 0 C9.9 0 19.8 0 30 0 C30 2.97 30 5.94 30 9 C23.73 9 17.46 9 11 9 C11 11.31 11 13.62 11 16 C16.94 16 22.88 16 29 16 C29 18.97 29 21.94 29 25 C23.06 25 17.12 25 11 25 C11 27.64 11 30.28 11 33 C17.27 33 23.54 33 30 33 C30 35.97 30 38.94 30 42 C20.1 42 10.2 42 0 42 C0 28.14 0 14.28 0 0 Z " fill="#FCAF01" transform="translate(254,217)"/>
<path d="M0 0 C7.96153846 0 7.96153846 0 12 3 C14.67151851 5.67151851 14.29873672 7.09182532 14.3125 10.8125 C14.32925781 11.85019531 14.34601563 12.88789063 14.36328125 13.95703125 C13.92145297 17.65793693 12.65578 20.34422 10 23 C6.7 23 3.4 23 0 23 C0 15.41 0 7.82 0 0 Z " fill="#1C3D75" transform="translate(301,226)"/>
<path d="M0 0 C2.32540894 2.32540894 2.55509385 3.55941613 3.2890625 6.71875 C3.50820313 7.65074219 3.72734375 8.58273438 3.953125 9.54296875 C4.17484375 10.51878906 4.3965625 11.49460938 4.625 12.5 C4.85445312 13.47582031 5.08390625 14.45164063 5.3203125 15.45703125 C7 22.68568638 7 22.68568638 7 25 C3.04 25 -0.92 25 -5 25 C-3.33333333 16.66666667 -1.66666667 8.33333333 0 0 Z " fill="#253F6C" transform="translate(60,139)"/>
<path d="M0 0 C6.8359375 0.48828125 6.8359375 0.48828125 9 1 C11 4 11 4 10.8125 6.5 C9.90294872 9.29861933 9.48829888 10.42407738 7 12 C3.3125 12.1875 3.3125 12.1875 0 12 C0 8.04 0 4.08 0 0 Z " fill="#24416E" transform="translate(227,226)"/>
<path d="M0 0 C6.8359375 0.48828125 6.8359375 0.48828125 9 1 C11 4 11 4 10.8125 6.5 C9.90294872 9.29861933 9.48829888 10.42407738 7 12 C3.3125 12.1875 3.3125 12.1875 0 12 C0 8.04 0 4.08 0 0 Z " fill="#24416E" transform="translate(189,226)"/>
<path d="M0 0 C7.37042925 -0.36248013 7.37042925 -0.36248013 10.0625 1.1875 C11 3 11 3 10.8125 5.5625 C10 8 10 8 8 10 C5.31160615 10.26991906 2.70858064 10.08737357 0 10 C0 6.7 0 3.4 0 0 Z " fill="#1F3E71" transform="translate(104,226)"/>
<path d="M0 0 C3.40858586 3.40858586 3.93008394 8.32201465 4.125 13 C4.08375 13.66 4.0425 14.32 4 15 C1.69 15 -0.62 15 -3 15 C-2 10 -1 5 0 0 Z " fill="#28446E" transform="translate(151,227)"/>
</svg>
